<svg width="24" height="24" viewBox="0 0 24 24" fill="none" xmlns="http://www.w3.org/2000/svg">
<path fill-rule="evenodd" clip-rule="evenodd" d="M12 0C5.37258 0 0 5.37258 0 12C0 18.6274 5.37258 24 12 24C18.6274 24 24 18.6274 24 12C24 5.37258 18.6274 0 12 0ZM9.36174 5.63876C10.0444 5.6077 10.2625 5.6001 12.0007 5.6001H11.9987C13.7374 5.6001 13.9547 5.6077 14.6374 5.63876C15.3187 5.66997 15.7841 5.77783 16.1921 5.9361C16.6134 6.09944 16.9694 6.31811 17.3254 6.67411C17.6814 7.02985 17.9001 7.38692 18.0641 7.80785C18.2214 8.21479 18.3294 8.67986 18.3614 9.3612C18.3921 10.0439 18.4001 10.262 18.4001 12.0002C18.4001 13.7383 18.3921 13.9559 18.3614 14.6386C18.3294 15.3197 18.2214 15.7849 18.0641 16.1919C17.9001 16.6127 17.6814 16.9698 17.3254 17.3256C16.9698 17.6816 16.6133 17.9008 16.1925 18.0642C15.7853 18.2225 15.3197 18.3304 14.6383 18.3616C13.9557 18.3926 13.7382 18.4002 11.9999 18.4002C10.2619 18.4002 10.0439 18.3926 9.3612 18.3616C8.68 18.3304 8.21479 18.2225 7.80759 18.0642C7.38692 17.9008 7.02985 17.6816 6.67424 17.3256C6.31837 16.9698 6.0997 16.6127 5.9361 16.1918C5.77797 15.7849 5.6701 15.3198 5.63876 14.6385C5.60783 13.9558 5.6001 13.7383 5.6001 12.0002C5.6001 10.262 5.6081 10.0437 5.63863 9.36107C5.6693 8.68 5.7773 8.21479 5.93597 7.80772C6.09997 7.38692 6.31864 7.02985 6.67464 6.67411C7.03038 6.31824 7.38745 6.09957 7.80839 5.9361C8.21533 5.77783 8.6804 5.66997 9.36174 5.63876Z" fill="white"/>
<path fill-rule="evenodd" clip-rule="evenodd" d="M11.4266 6.75306C11.5381 6.75289 11.658 6.75294 11.7874 6.753L12.0007 6.75306C13.7096 6.75306 13.9121 6.7592 14.5869 6.78987C15.2109 6.8184 15.5496 6.92267 15.7752 7.01027C16.0739 7.12627 16.2868 7.26494 16.5107 7.48894C16.7347 7.71294 16.8733 7.92628 16.9896 8.22495C17.0772 8.45028 17.1816 8.78895 17.21 9.41296C17.2407 10.0876 17.2473 10.2903 17.2473 11.9983C17.2473 13.7063 17.2407 13.909 17.21 14.5837C17.1815 15.2077 17.0772 15.5464 16.9896 15.7717C16.8736 16.0704 16.7347 16.283 16.5107 16.5069C16.2867 16.7309 16.074 16.8696 15.7752 16.9856C15.5499 17.0736 15.2109 17.1776 14.5869 17.2061C13.9122 17.2368 13.7096 17.2434 12.0007 17.2434C10.2918 17.2434 10.0893 17.2368 9.41459 17.2061C8.79058 17.1773 8.45191 17.073 8.22618 16.9854C7.92751 16.8694 7.71417 16.7308 7.49017 16.5068C7.26617 16.2828 7.1275 16.07 7.01123 15.7712C6.92363 15.5458 6.81923 15.2072 6.79083 14.5831C6.76016 13.9085 6.75403 13.7058 6.75403 11.9967C6.75403 10.2876 6.76016 10.086 6.79083 9.41136C6.81936 8.78735 6.92363 8.44868 7.01123 8.22308C7.12723 7.92441 7.26617 7.71107 7.49017 7.48707C7.71417 7.26307 7.92751 7.1244 8.22618 7.00813C8.45178 6.92013 8.79058 6.81613 9.41459 6.78747C10.005 6.7608 10.2338 6.7528 11.4266 6.75146V6.75306ZM15.4169 7.81545C14.9929 7.81545 14.6489 8.15906 14.6489 8.58319C14.6489 9.0072 14.9929 9.3512 15.4169 9.3512C15.8409 9.3512 16.1849 9.0072 16.1849 8.58319C16.1849 8.15919 15.8409 7.81519 15.4169 7.81519V7.81545ZM8.71411 11.9991C8.71411 10.1841 10.1857 8.71247 12.0007 8.7124C13.8158 8.7124 15.287 10.184 15.287 11.9991C15.287 13.8142 13.8159 15.2851 12.0008 15.2851C10.1857 15.2851 8.71411 13.8142 8.71411 11.9991Z" fill="white"/>
<path fill-rule="evenodd" clip-rule="evenodd" d="M12.0005 9.86646C13.1787 9.86646 14.1339 10.8215 14.1339 11.9998C14.1339 13.178 13.1787 14.1332 12.0005 14.1332C10.8223 14.1332 9.86719 13.178 9.86719 11.9998C9.86719 10.8215 10.8223 9.86646 12.0005 9.86646V9.86646Z" fill="white"/>
</svg>
