<svg width="24" height="24" viewBox="0 0 24 24" fill="none" xmlns="http://www.w3.org/2000/svg">
<path fill-rule="evenodd" clip-rule="evenodd" d="M12 0C5.37258 0 0 5.37258 0 12C0 18.6274 5.37258 24 12 24C18.6274 24 24 18.6274 24 12C24 5.37258 18.6274 0 12 0ZM11.6658 10.1687L11.6406 9.75346C11.5651 8.67726 12.2282 7.69427 13.2774 7.31294C13.6635 7.17735 14.3182 7.16041 14.7463 7.27904C14.9142 7.32989 15.2331 7.49937 15.4598 7.6519L15.8711 7.93154L16.3243 7.78748C16.5761 7.71122 16.9119 7.58411 17.063 7.49937C17.2057 7.4231 17.3316 7.38073 17.3316 7.40615C17.3316 7.55021 17.021 8.04171 16.7608 8.31287C16.4083 8.6942 16.509 8.7281 17.2224 8.47388C17.6505 8.32982 17.6589 8.32982 17.575 8.49083C17.5246 8.57557 17.2644 8.87216 16.9874 9.14333C16.5174 9.6094 16.4922 9.66024 16.4922 10.05C16.4922 10.6517 16.2068 11.9059 15.9214 12.5923C15.3926 13.8803 14.2595 15.2107 13.1263 15.8802C11.5315 16.8208 9.40786 17.0581 7.61999 16.5073C7.02404 16.3208 6 15.8463 6 15.7615C6 15.7361 6.31057 15.7022 6.68829 15.6937C7.4773 15.6768 8.26631 15.4565 8.93781 15.0667L9.39108 14.7955L8.87066 14.6175C8.13201 14.3633 7.46891 13.7786 7.30103 13.2278C7.25067 13.0499 7.26746 13.0414 7.73751 13.0414L8.22434 13.0329L7.81305 12.838C7.32621 12.5923 6.88134 12.177 6.66311 11.7533C6.50362 11.4483 6.30218 10.6771 6.36093 10.6178C6.37772 10.5924 6.55399 10.6432 6.75544 10.711C7.33461 10.9229 7.41015 10.872 7.0744 10.5161C6.44487 9.87209 6.25181 8.91453 6.55399 8.00781L6.69668 7.60106L7.25067 8.15187C8.38383 9.26196 9.71843 9.92294 11.2461 10.1178L11.6658 10.1687Z" fill="white"/>
</svg>
